<svg width="60" height="17" viewBox="0 0 60 17" fill="none" xmlns="http://www.w3.org/2000/svg">
<path d="M13.5401 7.97531L13.5358 9.4003L49.5346 9.50882L49.5389 8.08382L13.5401 7.97531Z" fill="#362982"/>
<path d="M14.118 7.98457L10.6774 1.98298L9.05611 1.97824L12.4967 7.97984L10.8754 7.97507L7.43479 1.97347L5.81252 1.96892L9.25511 7.97014L7.63386 7.96539L4.19121 1.96419L2.56996 1.95941L6.01254 7.96063L4.35461 7.95593L4.35059 9.36817L6.00853 9.37286L2.5308 15.3549L4.15211 15.3596L7.62984 9.3776L9.2511 9.38237L5.77336 15.3644L7.39564 15.369L10.8724 9.38711L12.4937 9.39189L9.01695 15.3737L10.6382 15.3785L14.115 9.39662L14.118 7.98457Z" fill="#362982"/>
<path d="M42.4356 4.03532L48.0397 8.79079L42.4068 13.5124L58.7413 8.82274L42.4356 4.03532Z" fill="#362982"/>
<path d="M44.7437 5.42062L56.9459 8.81857L48.8995 8.79422L44.7437 5.42062Z" fill="#362982"/>
</svg>
