<svg width="60" height="18" viewBox="0 0 60 18" fill="none" xmlns="http://www.w3.org/2000/svg">
<path d="M14.3668 8.74734L14.3625 10.1723L50.3614 10.2808L50.3656 8.85586L14.3668 8.74734Z" fill="#F4EEED"/>
<path d="M14.9447 8.75661L11.5041 2.75502L9.88283 2.75027L13.3234 8.75187L11.7021 8.74711L8.26151 2.74551L6.63924 2.74096L10.0818 8.74217L8.46058 8.73742L5.01794 2.73622L3.39668 2.73145L6.83927 8.73266L5.18133 8.72796L5.17731 10.1402L6.83525 10.1449L3.35752 16.1269L4.97883 16.1317L8.45656 10.1496L10.0778 10.1544L6.60008 16.1364L8.22236 16.141L11.6991 10.1591L13.3204 10.1639L9.84367 16.1457L11.4649 16.1505L14.9417 10.1687L14.9447 8.75661Z" fill="#F4EEED"/>
<path d="M43.2623 4.80735L48.8664 9.56282L43.2335 14.2844L59.568 9.59478L43.2623 4.80735Z" fill="#F4EEED"/>
<path d="M45.5704 6.19266L57.7726 9.5906L49.7262 9.56625L45.5704 6.19266Z" fill="#F4EEED"/>
</svg>
