<svg width="60" height="17" viewBox="0 0 60 17" fill="none" xmlns="http://www.w3.org/2000/svg">
<path d="M45.4815 7.97531L45.4858 9.4003L9.487 9.50882L9.48271 8.08382L45.4815 7.97531Z" fill="#F4EEED"/>
<path d="M44.9036 7.98457L48.3443 1.98298L49.9655 1.97824L46.5249 7.97984L48.1462 7.97507L51.5868 1.97347L53.2091 1.96892L49.7665 7.97014L51.3878 7.96539L54.8304 1.96419L56.4517 1.95941L53.0091 7.96063L54.667 7.95593L54.671 9.36817L53.0131 9.37286L56.4908 15.3549L54.8695 15.3596L51.3918 9.3776L49.7705 9.38237L53.2483 15.3644L51.626 15.369L48.1492 9.38711L46.528 9.39189L50.0047 15.3737L48.3834 15.3785L44.9067 9.39662L44.9036 7.98457Z" fill="#F4EEED"/>
<path d="M16.5861 4.03532L10.9819 8.79079L16.6149 13.5124L0.280332 8.82274L16.5861 4.03532Z" fill="#F4EEED"/>
<path d="M14.2779 5.42062L2.07577 8.81857L10.1222 8.79422L14.2779 5.42062Z" fill="#F4EEED"/>
</svg>
