<svg xmlns="http://www.w3.org/2000/svg" width="15.412" height="13.973" viewBox="0 0 15.412 13.973">
  <g id="Group_164" data-name="Group 164" transform="translate(-37.128 -1936.717)">
    <g id="Group_10" data-name="Group 10" transform="matrix(0.995, -0.105, 0.105, 0.995, -258.269, 1954.479)">
      <g id="Path_19" data-name="Path 19" transform="translate(297.4 20.923) rotate(45)" fill="#e62e6c">
        <path d="M 7.149252414703369 1.363544464111328 L 6.527432441711426 1.340214490890503 L -0.01874773018062115 1.094574451446533 L -0.8833877444267273 1.062124490737915 L -0.4235377311706543 0.3291945159435272 L -0.1985177248716354 -0.02945549041032791 L -0.05810773000121117 -0.2532455027103424 L 0.205882266163826 -0.2633554935455322 L 6.374512195587158 -0.4996255040168762 L 6.808142185211182 -0.5162354707717896 L 6.885622501373291 -0.08926548808813095 L 7.03815221786499 0.7512944936752319 L 7.149252414703369 1.363544464111328 Z" stroke="none"/>
        <path d="M 6.393652439117432 4.529953002929688e-06 L 0.2250223159790039 0.2362744808197021 L 2.384185791015625e-06 0.5949245095252991 L 6.546182155609131 0.840564489364624 L 6.393652439117432 4.529953002929688e-06 M 7.222622394561768 -1.032475471496582 L 7.37758207321167 -0.1785454750061035 L 7.530112266540527 0.6620144844055176 L 7.752312183380127 1.886524558067322 L 6.508682250976562 1.839864492416382 L -0.03749752044677734 1.594224452972412 L -1.766777992248535 1.529334545135498 L -0.8470778465270996 0.06345450878143311 L -0.6220579147338867 -0.295195460319519 L -0.34124755859375 -0.7427655458450317 L 0.1867523193359375 -0.7629954814910889 L 6.355382442474365 -0.9992654323577881 L 7.222622394561768 -1.032475471496582 Z" stroke="none" fill="#e62e6c"/>
      </g>
      <g id="Path_22" data-name="Path 22" transform="matrix(0.643, -0.766, 0.766, 0.643, 300.053, 25.035)" fill="#e62e6c">
        <path d="M -0.5738843679428101 2.555843830108643 L -0.4957543611526489 1.960343718528748 L -0.230044350028038 -0.06503623723983765 L -0.1698643565177917 -0.5237762331962585 L 0.2921656370162964 -0.499296247959137 L 11.03678607940674 0.07002376019954681 L 11.34017562866211 0.08610375970602036 L 11.46567535400391 0.3627837598323822 L 11.85764598846436 1.226953744888306 L 12.16056537628174 1.894803762435913 L 11.42821598052979 1.932823777198792 L 0.02591564878821373 2.524713754653931 L -0.5738843679428101 2.555843830108643 Z" stroke="none"/>
        <path d="M 0.2656955718994141 3.814697265625e-06 L -4.76837158203125e-06 2.025383710861206 L 11.40229606628418 1.433493733406067 L 11.01032543182373 0.5693237781524658 L 0.2656955718994141 3.814697265625e-06 M -0.6054439544677734 -1.047556161880493 L 0.3186054229736328 -0.99859619140625 L 11.06323528289795 -0.4292762279510498 L 11.67002582550049 -0.3971261978149414 L 11.92102527618408 0.1562538146972656 L 12.31299591064453 1.020423769950867 L 12.91883563995361 2.35611367225647 L 11.45413589477539 2.432153701782227 L 0.05183601379394531 3.024043798446655 L -1.147754669189453 3.086313724517822 L -0.9915046691894531 1.895313739776611 L -0.725804328918457 -0.1300661563873291 L -0.6054439544677734 -1.047556161880493 Z" stroke="none" fill="#e62e6c"/>
      </g>
    </g>
  </g>
</svg>
