<svg width="35" height="35" viewBox="0 0 35 35" fill="none" xmlns="http://www.w3.org/2000/svg">
<path d="M10.621 14.807C11.3577 14.807 11.955 14.2097 11.955 13.473C11.955 12.7362 11.3577 12.139 10.621 12.139C9.88424 12.139 9.28699 12.7362 9.28699 13.473C9.28699 14.2097 9.88424 14.807 10.621 14.807Z" stroke="#E62E6C" stroke-width="2"/>
<path d="M23.716 14.807C24.4528 14.807 25.05 14.2097 25.05 13.473C25.05 12.7362 24.4528 12.139 23.716 12.139C22.9793 12.139 22.382 12.7362 22.382 13.473C22.382 14.2097 22.9793 14.807 23.716 14.807Z" stroke="#E62E6C" stroke-width="2"/>
<path d="M9.79501 23.006C9.79501 23.006 17.011 28.397 24.462 23.006" stroke="#E62E6C" stroke-width="2" stroke-linecap="round"/>
</svg>
