<svg xmlns="http://www.w3.org/2000/svg" width="43.121" height="45.23"><g data-name="Group 312"><path data-name="Path 23" d="M1.876 43.152l38.219-11.154 1.75-17.814L1.796 1.336z" fill="none" stroke="#e62e6c" stroke-width="2.00064"/></g><path data-name="Path 200" d="M20.617 16.312a2.98 2.98 0 0 0-2.061.723 3.5 3.5 0 0 0-1.046 2.1h4.132v1.8h-4.286l-.021.359v.479l.021.338h3.64v1.825H17.53a2.965 2.965 0 0 0 3.292 2.497 7.041 7.041 0 0 0 2.82-.584v2.624a6.6 6.6 0 0 1-3 .6 6.2 6.2 0 0 1-4.132-1.364 6.111 6.111 0 0 1-2.041-3.773H13.06v-1.82h1.21a3.884 3.884 0 0 1-.041-.636l.021-.543h-1.19v-1.8h1.364a6.237 6.237 0 0 1 2.04-3.927 6.112 6.112 0 0 1 4.153-1.437 7.96 7.96 0 0 1 3.609.841l-1 2.379a10.272 10.272 0 0 0-1.323-.5 4.554 4.554 0 0 0-1.286-.181z" fill="#e62e6c"/></svg>