<svg xmlns="http://www.w3.org/2000/svg" width="52" height="44.158"><g fill="none"><path d="M13.736 14.15V.004L26 7.08 38.264.004v14.15L52 22.076l-13.736 7.928v14.154L26 37.082l-12.264 7.076V30.004L0 22.076z"/><path d="M4.001 22.076l10.735 6.196 1 .578v11.845L25 35.35l1-.576 1 .576 9.264 5.345V28.85l1-.578 10.735-6.196-10.735-6.193-1-.578V3.463L27 8.809l-1 .576-1-.576-9.264-5.346V15.305l-1 .578L4 22.076m-4.001 0l13.736-7.926V0L26 7.076 38.264 0v14.15L52 22.076l-13.736 7.928v14.154L26 37.082l-12.264 7.076V30.004L0 22.076z" fill="#e62e6c"/></g></svg>