<?xml version="1.0" encoding="utf-8"?>
<!-- Generator: Adobe Illustrator 16.0.0, SVG Export Plug-In . SVG Version: 6.00 Build 0)  -->
<!DOCTYPE svg PUBLIC "-//W3C//DTD SVG 1.1//EN" "http://www.w3.org/Graphics/SVG/1.1/DTD/svg11.dtd">
<svg version="1.1" id="Layer_1" xmlns="http://www.w3.org/2000/svg" xmlns:xlink="http://www.w3.org/1999/xlink" x="0px" y="0px"
	 width="800px" height="600px" viewBox="0 0 800 600" enable-background="new 0 0 800 600" xml:space="preserve">
<g>
	<defs>
		<rect id="SVGID_1_" width="800" height="600"/>
	</defs>
	<clipPath id="SVGID_2_">
		<use xlink:href="#SVGID_1_"  overflow="visible"/>
	</clipPath>
	<path clip-path="url(#SVGID_2_)" fill="#1C3F94" d="M176.452,322.817v-86.33c0-10.348-5.026-14.487-15.374-14.487
		c-16.261,0-33.113,5.322-49.078,12.122v5.026h24.243v94.904c0,39.913,17.148,56.175,47.305,56.175
		c19.808,0,38.434-9.166,54.104-23.653v2.07c1.182,14.782,9.461,20.399,27.791,20.399c12.122,0,28.383-7.096,38.435-15.67
		l-0.592-2.66h-22.765l-2.661-57.947v-75.392c0-10.348-5.321-14.783-15.965-14.783c-16.261,0-32.521,5.026-48.487,11.531v5.026
		h24.244v118.26c-9.165,4.139-17.444,7.392-26.904,7.392C186.8,364.8,176.452,352.973,176.452,322.817"/>
	<path clip-path="url(#SVGID_2_)" fill="#1C3F94" d="M580.692,367.479c-2.31,0-3.678-1.226-3.678-3.913
		c0-2.168,1.462-3.536,4.479-4.243c1.132-0.282,2.688-0.471,3.866-0.659v7.213C583.615,366.96,582.106,367.479,580.692,367.479
		 M581.069,357.956c-5.045,0.612-10.276,2.31-10.276,7.825c0,3.064,2.356,5.422,6.316,5.422c3.441,0,6.128-1.886,8.25-4.525v0.707
		c0.094,2.64,1.414,3.724,4.431,3.724c1.84,0,4.433-1.084,6.13-2.499l-0.048-0.424h-3.677l-0.425-9.664v-6.553
		c0-5.94-4.195-7.449-8.344-7.449c-4.337,0-8.863,2.593-10.749,4.196l0.425,0.613c1.744-0.99,4.195-1.604,6.411-1.604
		c3.063,0,5.846,1.367,5.846,5.092v4.714L581.069,357.956z M560.043,339.853c0.85,0,3.679-3.017,3.679-3.63
		c0-0.754-2.97-3.583-3.679-3.583c-0.706,0-3.581,2.735-3.581,3.583C556.462,336.977,559.289,339.853,560.043,339.853
		 M563.438,357.909v-11.126c0-1.65-0.802-2.311-2.452-2.311c-2.593,0-5.28,0.849-7.825,1.933v0.803h3.865v10.701l-0.188,9.334
		c-0.048,1.366-0.473,2.026-1.98,2.451l-1.415,0.33c0,0.235,0,0.472,0.095,0.754h13.624c0.095-0.235,0.142-0.565,0.142-0.754
		l-2.027-0.472c-1.272-0.33-1.697-1.037-1.697-2.31L563.438,357.909z M528.883,346.783c0-1.65-0.802-2.311-2.452-2.311
		c-2.592,0-5.28,0.849-7.825,1.933v0.803h3.865v10.701l-0.188,9.334c-0.047,1.366-0.472,2.026-1.979,2.451l-1.414,0.33
		c0,0.235,0,0.472,0.094,0.754h13.624c0.095-0.235,0.142-0.565,0.142-0.754l-2.026-0.472c-1.273-0.33-1.698-1.037-1.698-2.31
		l-0.141-9.334V349.8c1.839-0.848,3.487-1.178,4.997-1.178c3.771,0,5.656,1.743,5.703,6.363v2.924l-0.188,9.334
		c-0.047,1.366-0.472,2.026-1.98,2.451l-1.413,0.33c0,0.235,0,0.472,0.094,0.754h13.624c0.094-0.235,0.142-0.565,0.142-0.754
		l-2.027-0.472c-1.272-0.33-1.697-1.037-1.697-2.31l-0.142-9.334v-4.479c0-6.411-2.923-8.957-7.731-8.957
		c-3.488,0-6.883,1.839-9.381,4.149V346.783z M503.189,346.028c3.772,0,5.186,3.489,5.186,9.57h-11.644
		C496.872,348.527,499.513,346.028,503.189,346.028 M514.362,357.202v-1.133c0-6.505-3.206-11.597-10.796-11.597
		c-7.637,0-12.87,6.695-12.87,14.332c0,8.155,3.772,12.445,12.022,12.445c4.667,0,8.58-1.838,10.513-4.337l-0.33-0.472
		c-2.687,0.99-5.186,1.273-7.119,1.273c-5.138,0-8.58-2.923-9.004-10.325v-0.188H514.362z M443.648,347.208v10.701l-0.189,9.334
		c-0.047,1.366-0.471,2.026-1.979,2.451l-1.414,0.33c0,0.235,0,0.472,0.094,0.754h13.624c0.096-0.235,0.143-0.565,0.143-0.754
		l-2.027-0.472c-1.273-0.33-1.697-1.037-1.697-2.31l-0.142-9.334v-8.25c1.509-0.707,3.063-1.037,4.479-1.037
		c3.771,0,5.469,1.743,5.516,6.363v2.924l-0.188,9.334c-0.047,1.366-0.472,2.026-1.979,2.451l-1.414,0.33
		c0,0.235,0,0.472,0.094,0.754h13.624c0.094-0.235,0.142-0.565,0.142-0.754l-2.027-0.472c-1.272-0.33-1.697-1.037-1.697-2.31
		l-0.141-9.334v-4.479c0-1.367-0.143-2.545-0.377-3.582c1.696-0.802,3.3-1.226,4.902-1.226c3.771,0,5.468,1.743,5.516,6.363v2.924
		l-0.188,9.334c-0.047,1.366-0.472,2.026-1.979,2.451l-1.415,0.33c0,0.235,0,0.472,0.095,0.754h13.671
		c0.095-0.235,0.142-0.565,0.142-0.754l-2.074-0.472c-1.272-0.33-1.697-1.037-1.697-2.31l-0.141-9.334v-4.479
		c0-6.411-2.734-8.957-7.544-8.957c-3.63,0-6.977,1.98-9.522,4.526c-1.131-3.206-3.583-4.526-6.978-4.526
		c-3.3,0-6.363,1.839-8.815,4.102v-1.791c0-1.65-0.801-2.311-2.451-2.311c-2.593,0-5.28,0.849-7.826,1.933v0.803H443.648z
		 M416.069,360.549v-13.766c0-1.65-0.801-2.311-2.451-2.311c-2.593,0-5.279,0.849-7.825,1.933v0.803h3.865v15.132
		c0,6.365,2.734,8.958,7.542,8.958c3.159,0,6.129-1.462,8.628-3.772v0.33c0.188,2.357,1.509,3.253,4.432,3.253
		c1.933,0,4.525-1.131,6.129-2.499l-0.095-0.424h-3.631l-0.424-9.24v-12.021c0-1.65-0.848-2.358-2.546-2.358
		c-2.593,0-5.185,0.803-7.73,1.839v0.803h3.865v18.856c-1.462,0.66-2.781,1.179-4.29,1.179
		C417.72,367.243,416.069,365.357,416.069,360.549"/>
	<path clip-path="url(#SVGID_2_)" fill="#1C3F94" d="M674.082,304.643v-13.767c0-1.65-0.803-2.31-2.452-2.31
		c-2.593,0-5.28,0.849-7.825,1.933v0.801h3.865v15.133c0,6.364,2.734,8.956,7.543,8.956c3.158,0,6.129-1.461,8.627-3.771v0.33
		c0.188,2.356,1.509,3.253,4.432,3.253c1.934,0,4.526-1.132,6.128-2.499l-0.094-0.424h-3.63l-0.424-9.24v-12.022
		c0-1.65-0.85-2.357-2.546-2.357c-2.594,0-5.187,0.802-7.731,1.839v0.801h3.865v18.858c-1.461,0.66-2.781,1.178-4.29,1.178
		C675.731,311.336,674.082,309.45,674.082,304.643 M643.628,291.3v10.702l-0.188,9.334c-0.048,1.367-0.472,2.027-1.979,2.452
		l-1.415,0.33c0,0.235,0,0.471,0.094,0.754h13.625c0.094-0.236,0.141-0.566,0.141-0.754l-2.026-0.472
		c-1.273-0.33-1.697-1.037-1.697-2.311l-0.141-9.334v-7.449c1.319-0.801,3.063-1.461,4.997-1.461c1.603,0,3.11,0.33,4.524,1.084
		l1.604-5.044c-0.896-0.33-1.791-0.566-3.018-0.566c-3.677,0-6.6,2.404-8.107,5.044v-2.734c0-1.65-0.803-2.31-2.452-2.31
		c-2.594,0-5.28,0.849-7.826,1.933v0.801H643.628z M628.447,302.426c0,6.978-1.414,11.456-5.656,11.456
		c-4.903,0-6.224-5.374-6.224-12.398c0-6.741,1.273-11.456,5.657-11.456C627.458,290.027,628.447,296.816,628.447,302.426
		 M635.283,301.672c0-8.91-4.525-13.106-12.54-13.106c-7.354,0-12.965,7.024-12.965,13.907c0,8.863,4.386,12.917,12.54,12.917
		C629.909,315.39,635.283,308.178,635.283,301.672 M597.711,302.002c0,6.93-2.122,11.503-6.789,11.503
		c-1.744,0-2.828-0.283-3.865-0.707l-0.095-11.975v-7.826c1.085-0.377,2.734-1.037,4.385-1.037
		C595.494,291.96,597.711,294.317,597.711,302.002 M604.404,301.106c0-8.533-3.44-12.493-10.088-12.493
		c-3.111,0-5.469,1.556-7.354,3.3v-1.037c0-1.65-0.802-2.31-2.451-2.31c-2.593,0-5.28,0.849-7.826,1.933v0.801h3.866v10.23
		l-0.377,20.178c-0.047,1.367-0.473,2.027-1.98,2.451l-1.415,0.33c0,0.235,0,0.471,0.096,0.754h13.906
		c0.095-0.235,0.142-0.565,0.142-0.754l-2.027-0.471c-1.273-0.33-1.697-1.038-1.697-2.311l-0.094-6.695
		c0.99,0.143,1.98,0.236,3.441,0.236C598.182,315.249,604.404,310.771,604.404,301.106 M559.007,311.996
		c-3.677,0-6.883-3.064-6.883-10.89c0-7.167,2.216-10.938,7.118-10.938c1.509,0,2.688,0.33,3.818,0.848v20.225
		C561.883,311.666,560.468,311.996,559.007,311.996 M567.54,315.202c1.933,0,4.478-1.132,6.128-2.499l-0.095-0.424h-3.63
		l-0.471-10.089v-21.308c0-1.65-0.802-2.31-2.452-2.31c-2.593,0-5.28,0.848-7.825,1.98v0.754h3.865v7.637
		c-1.037-0.141-2.357-0.236-4.007-0.236c-7.401,0-13.294,5.469-13.294,14.096c0,10.419,5.327,12.399,10.229,12.399
		c2.734,0,5.233-1.367,7.118-2.97C563.344,314.354,564.711,315.202,567.54,315.202 M533.69,302.426
		c0,6.978-1.414,11.456-5.657,11.456c-4.902,0-6.223-5.374-6.223-12.398c0-6.741,1.273-11.456,5.657-11.456
		C532.7,290.027,533.69,296.816,533.69,302.426 M540.526,301.672c0-8.91-4.525-13.106-12.54-13.106
		c-7.354,0-12.965,7.024-12.965,13.907c0,8.863,4.385,12.917,12.541,12.917C535.152,315.39,540.526,308.178,540.526,301.672
		 M502.953,302.002c0,6.93-2.12,11.503-6.788,11.503c-1.744,0-2.828-0.283-3.865-0.707l-0.095-11.975v-7.826
		c1.085-0.377,2.734-1.037,4.385-1.037C500.737,291.96,502.953,294.317,502.953,302.002 M509.647,301.106
		c0-8.533-3.44-12.493-10.088-12.493c-3.112,0-5.469,1.556-7.354,3.3v-1.037c0-1.65-0.802-2.31-2.451-2.31
		c-2.594,0-5.28,0.849-7.826,1.933v0.801h3.866v10.23l-0.377,20.178c-0.048,1.367-0.473,2.027-1.98,2.451l-1.415,0.33
		c0,0.235,0,0.471,0.095,0.754h13.907c0.094-0.235,0.142-0.565,0.142-0.754l-2.027-0.471c-1.273-0.33-1.697-1.038-1.697-2.311
		l-0.094-6.695c0.99,0.143,1.979,0.236,3.44,0.236C503.425,315.249,509.647,310.771,509.647,301.106 M450.908,311.572
		c-2.31,0-3.677-1.227-3.677-3.913c0-2.169,1.461-3.536,4.479-4.243c1.132-0.283,2.687-0.471,3.865-0.66v7.213
		C453.832,311.053,452.322,311.572,450.908,311.572 M451.285,302.049c-5.044,0.613-10.276,2.311-10.276,7.826
		c0,3.064,2.356,5.421,6.316,5.421c3.441,0,6.128-1.886,8.25-4.525v0.708c0.095,2.64,1.414,3.724,4.432,3.724
		c1.839,0,4.432-1.084,6.129-2.499l-0.047-0.424h-3.678l-0.425-9.664v-6.553c0-5.94-4.194-7.449-8.344-7.449
		c-4.337,0-8.863,2.593-10.749,4.196l0.425,0.613c1.744-0.99,4.195-1.603,6.411-1.603c3.064,0,5.846,1.367,5.846,5.091v4.715
		L451.285,302.049z M416.729,290.876c0-1.65-0.801-2.31-2.451-2.31c-2.593,0-5.279,0.849-7.826,1.933v0.801h3.866v10.702
		l-0.188,9.334c-0.047,1.367-0.472,2.027-1.98,2.452l-1.414,0.33c0,0.235,0,0.471,0.095,0.754h13.623
		c0.096-0.236,0.143-0.566,0.143-0.754l-2.027-0.472c-1.272-0.33-1.697-1.037-1.697-2.311l-0.142-9.334v-8.109
		c1.839-0.848,3.489-1.178,4.997-1.178c3.772,0,5.657,1.744,5.705,6.364v2.923l-0.189,9.334c-0.047,1.367-0.471,2.027-1.979,2.452
		l-1.414,0.33c0,0.235,0,0.471,0.094,0.754h13.624c0.095-0.236,0.143-0.566,0.143-0.754l-2.027-0.472
		c-1.273-0.33-1.698-1.037-1.698-2.311l-0.141-9.334v-4.479c0-6.411-2.923-8.957-7.731-8.957c-3.488,0-6.883,1.839-9.382,4.149
		V290.876z"/>
	<path clip-path="url(#SVGID_2_)" fill="#1C3F94" d="M505.688,256.425c-3.678,0-6.883-3.065-6.883-10.89
		c0-7.166,2.215-10.938,7.118-10.938c1.509,0,2.687,0.33,3.818,0.849v20.224C508.563,256.095,507.149,256.425,505.688,256.425
		 M514.221,259.63c1.933,0,4.479-1.131,6.129-2.498l-0.094-0.424h-3.63l-0.473-10.089V225.31c0-1.65-0.801-2.31-2.451-2.31
		c-2.593,0-5.279,0.849-7.825,1.98v0.755h3.865v7.637c-1.037-0.142-2.356-0.236-4.007-0.236c-7.401,0-13.295,5.469-13.295,14.096
		c0,10.418,5.328,12.398,10.23,12.398c2.734,0,5.232-1.367,7.119-2.97C510.025,258.782,511.393,259.63,514.221,259.63
		 M467.407,235.305c0-1.65-0.801-2.31-2.45-2.31c-2.594,0-5.28,0.848-7.826,1.932v0.802h3.865v10.701l-0.188,9.335
		c-0.047,1.367-0.471,2.027-1.98,2.451l-1.413,0.33c0,0.236,0,0.472,0.094,0.754h13.625c0.094-0.235,0.141-0.565,0.141-0.754
		l-2.027-0.471c-1.272-0.33-1.696-1.037-1.696-2.31l-0.143-9.335v-8.108c1.839-0.849,3.489-1.179,4.998-1.179
		c3.771,0,5.657,1.745,5.704,6.365v2.922l-0.188,9.335c-0.047,1.367-0.472,2.027-1.98,2.451l-1.414,0.33
		c0,0.236,0,0.472,0.094,0.754h13.625c0.095-0.235,0.142-0.565,0.142-0.754l-2.027-0.471c-1.272-0.33-1.697-1.037-1.697-2.31
		l-0.142-9.335v-4.478c0-6.412-2.923-8.957-7.73-8.957c-3.489,0-6.884,1.838-9.383,4.148V235.305z M445.816,246.854
		c0,6.977-1.414,11.455-5.657,11.455c-4.902,0-6.223-5.374-6.223-12.398c0-6.742,1.273-11.456,5.657-11.456
		C444.826,234.456,445.816,241.245,445.816,246.854 M452.652,246.1c0-8.91-4.525-13.105-12.54-13.105
		c-7.354,0-12.965,7.024-12.965,13.907c0,8.863,4.385,12.917,12.54,12.917C447.277,259.819,452.652,252.605,452.652,246.1
		 M429.27,226.536c0-2.357-3.583-3.536-8.061-3.536c-5.14,0-10.844,4.243-10.844,9.429v2.64l-3.771,0.424v1.556h3.771v9.381
		l-0.188,9.335c-0.047,1.367-0.472,2.027-1.98,2.451l-1.414,0.33c0,0.236,0,0.472,0.095,0.754h13.672
		c0.094-0.235,0.141-0.565,0.141-0.754l-2.027-0.471c-1.272-0.33-1.696-1.037-1.696-2.31l-0.143-9.335v-9.381h5.61v-1.98h-5.61
		v-2.97c0-4.054,0.52-7.684,4.62-7.684c2.122,0,3.583,2.687,5.187,5.185C428.044,228.987,429.27,228.186,429.27,226.536"/>
	<path clip-path="url(#SVGID_2_)" fill="#1C3F94" d="M363.145,371.828c0-5.344-16.83-21.64-21.906-21.64
		c-5.076,0-21.639,16.029-21.639,21.64c0,5.343,16.563,22.173,21.639,22.173C346.315,394.001,363.145,376.903,363.145,371.828"/>
</g>
</svg>
