<svg xmlns="http://www.w3.org/2000/svg" width="71.106" height="55.966" viewBox="0 0 71.106 55.966"><defs><style>.a{fill:#e62e6c;}</style></defs><g transform="matrix(0.995, -0.105, 0.105, 0.995, 0, 6.932)"><path class="a" d="M1.264.006.943.039A1.237,1.237,0,0,0,0,1.358l.41,19.536A1.4,1.4,0,0,0,1.442,22.3l.333.055c.565.089,1-.41.976-1.12L2.262,1.125C2.251.471,1.808-.061,1.264.006Z" transform="translate(43.477 14.348)"/><path class="a" d="M.765,0,.044.067,0,6.753l.721.011c.31,0,.576-.377.576-.887L1.319.855C1.33.367,1.075-.021.765,0Z" transform="translate(21.415 16.825)"/><path class="a" d="M64.77,0,2.283,13.853,0,34.9,66.316,49.3ZM45.229,4.337l2.657-.591L45.422,8.46l-2.258.377ZM6.353,33.753,6.3,29.982l-.785-.1L5.326,33.54l-1.92-.4,1.3-17.775,3.188-.49.64,19.334Zm10.459,2-1.63-.339.181-15.249-.978,15.085-2.041-.427L11.872,20.34l-.229,14.344-1.377-.289.35-19.749,2.246-.352.507,16.355.06.013,1-16.606,2.6-.4Zm8.2-12.408c0,2.678-1.208,4.425-2.838,4.312l-.809-.063-.048,8.888-2-.415.181-22.628,2.742-.427c1.618-.251,2.79,1.345,2.79,3.922ZM26.558,37.55l-.012-25.167,3.019-.465L29.65,33.2l4.01.553.048,5.292Zm9,1.81-.3-28.247,2.307-.365.4,29.1Zm9.77,2.426-.362-.075c-2.246-.478-3.853-2.866-3.9-5.556L40.7,14.444c-.048-2.539,1.437-4.714,3.575-5.066l.35-.05c2.2-.352,4.046,1.483,4.118,4.262l.64,23.872C49.456,40.441,47.633,42.289,45.326,41.786Zm12.681,2.137L54.227,17.75l.857,25.57L52.8,42.842,51.751,8.649l3.068-.478,3.768,24.652L57.62,7.731l2.44-.377,1.546,37.323Z" transform="translate(0 0)"/><path class="a" d="M.4.011,0,7.085l.532.033L.455,0Z" transform="translate(5.244 18.945)"/></g></svg>