<svg xmlns="http://www.w3.org/2000/svg" width="14.061" height="20.419" viewBox="0 0 14.061 20.419">
  <g id="Group_10" data-name="Group 10" transform="translate(-13.837 310.721) rotate(-90)">
    <g id="Path_19" data-name="Path 19" transform="translate(293.471 15.81) rotate(45)" fill="#e62e6c">
      <path d="M 13.54111480712891 2.201619386672974 L 12.92019462585449 2.17807936668396 L -0.01893508620560169 1.687589406967163 L -0.8786351084709167 1.654999494552612 L -0.4247450828552246 0.9241594672203064 L 0.02002491429448128 0.2079994529485703 L 0.1601149141788483 -0.01757054962217808 L 0.4254449009895325 -0.02784054912626743 L 12.61830520629883 -0.4996305406093597 L 13.05286502838135 -0.5164405703544617 L 13.1297550201416 -0.08840055018663406 L 13.43125534057617 1.590039491653442 L 13.54111480712891 2.201619386672974 Z" stroke="none"/>
      <path d="M 12.63763523101807 -5.960464477539062e-07 L 0.4447650909423828 0.4717894792556763 L -4.76837158203125e-06 1.187949419021606 L 12.93912506103516 1.678439497947693 L 12.63763523101807 -5.960464477539062e-07 M 13.46810531616211 -1.032880544662476 L 13.62188529968262 -0.1768006086349487 L 13.92337512969971 1.501639485359192 L 14.14308452606201 2.724799394607544 L 12.9012451171875 2.677719593048096 L -0.03788471221923828 2.18722939491272 L -1.757285118103027 2.122049331665039 L -0.8495054244995117 0.6603693962097168 L -0.4047346115112305 -0.05579054355621338 L -0.1245651245117188 -0.5069305896759033 L 0.4061050415039062 -0.5274605751037598 L 12.59897518157959 -0.9992506504058838 L 13.46810531616211 -1.032880544662476 Z" stroke="none" fill="#e62e6c"/>
    </g>
    <g id="Path_22" data-name="Path 22" transform="matrix(0.643, -0.766, 0.766, 0.643, 300.053, 25.035)" fill="#e62e6c">
      <path d="M -0.5738843679428101 2.555843830108643 L -0.4957543611526489 1.960343718528748 L -0.230044350028038 -0.06503623723983765 L -0.1698643565177917 -0.5237762331962585 L 0.2921656370162964 -0.499296247959137 L 11.03678607940674 0.07002376019954681 L 11.34017562866211 0.08610375970602036 L 11.46567535400391 0.3627837598323822 L 11.85764598846436 1.226953744888306 L 12.16056537628174 1.894803762435913 L 11.42821598052979 1.932823777198792 L 0.02591564878821373 2.524713754653931 L -0.5738843679428101 2.555843830108643 Z" stroke="none"/>
      <path d="M 0.2656955718994141 3.814697265625e-06 L -4.76837158203125e-06 2.025383710861206 L 11.40229606628418 1.433493733406067 L 11.01032543182373 0.5693237781524658 L 0.2656955718994141 3.814697265625e-06 M -0.6054439544677734 -1.047556161880493 L 0.3186054229736328 -0.99859619140625 L 11.06323528289795 -0.4292762279510498 L 11.67002582550049 -0.3971261978149414 L 11.92102527618408 0.1562538146972656 L 12.31299591064453 1.020423769950867 L 12.91883563995361 2.35611367225647 L 11.45413589477539 2.432153701782227 L 0.05183601379394531 3.024043798446655 L -1.147754669189453 3.086313724517822 L -0.9915046691894531 1.895313739776611 L -0.725804328918457 -0.1300661563873291 L -0.6054439544677734 -1.047556161880493 Z" stroke="none" fill="#e62e6c"/>
    </g>
  </g>
</svg>
