<svg xmlns="http://www.w3.org/2000/svg" width="111.782" height="122.709" viewBox="0 0 111.782 122.709">
  <g id="Group_146" data-name="Group 146" transform="translate(-955.453 -620.368)">
    <path id="Path_87" data-name="Path 87" d="M39.59,0,1.4,12.9,0,32.474,40.534,45.892Z" transform="translate(1011.112 735.534) rotate(-166)" fill="#f4eeed" stroke="#e62e6c" stroke-width="4"/>
    <path id="Path_89" data-name="Path 89" d="M39.59,0,1.4,12.9,0,32.474,40.534,45.892Z" transform="translate(1014.164 694.889) rotate(-11)" fill="#f4eeed" stroke="#e62e6c" stroke-width="4"/>
    <path id="Path_90" data-name="Path 90" d="M39.59,0,1.4,12.9,0,32.474,40.534,45.892Z" transform="translate(958.048 642.226) rotate(-11)" fill="#f4eeed" stroke="#e62e6c" stroke-width="4"/>
    <path id="Path_91" data-name="Path 91" d="M39.59,0,1.4,12.9,0,32.474,40.534,45.892Z" transform="matrix(0.996, 0.087, -0.087, 0.996, 1024.563, 623.308)" fill="#f4eeed" stroke="#e62e6c" stroke-width="4"/>
    <path id="Path_88" data-name="Path 88" d="M55.267,0,1.948,12.8,0,32.2,56.586,45.508Z" transform="translate(1051.723 703.157) rotate(-166)" fill="#f4eeed" stroke="#e62e6c" stroke-width="4"/>
  </g>
</svg>
