<svg width="45" height="50" viewBox="0 0 45 50" fill="none" xmlns="http://www.w3.org/2000/svg">
<g filter="url(#filter0_d)">
<path d="M39.9201 0.274738L2.72357 16.3527L2.97286 35.465L44.7234 44.6736L39.9201 0.274738Z" fill="#F4EEED"/>
</g>
<path d="M18.9482 29.6859V28.8009V19.8853V19.0623L19.6787 19.4415L27.6263 23.5684L28.4185 23.9797L27.654 24.4404L19.7063 29.2292L18.9482 29.6859Z" fill="#092343"/>
<path d="M19.4482 19.8853V28.8009L27.3959 24.0121L19.4482 19.8853ZM19.4483 18.8853C19.6062 18.8853 19.7643 18.9226 19.9091 18.9977L27.8567 23.1246C28.1779 23.2914 28.3839 23.6187 28.3954 23.9804C28.4069 24.3422 28.222 24.6818 27.912 24.8686L19.9643 29.6574C19.8058 29.753 19.6271 29.8009 19.4482 29.8009C19.2787 29.8009 19.1091 29.7579 18.9564 29.6716C18.6424 29.4942 18.4482 29.1615 18.4482 28.8009V19.8853C18.4482 19.5359 18.6305 19.212 18.929 19.0306C19.0881 18.934 19.2681 18.8853 19.4483 18.8853Z" fill="#092343"/>
<defs>
<filter id="filter0_d" x="0.128052" y="0.202652" width="44.5954" height="49.1244" filterUnits="userSpaceOnUse" color-interpolation-filters="sRGB">
<feFlood flood-opacity="0" result="BackgroundImageFix"/>
<feColorMatrix in="SourceAlpha" type="matrix" values="0 0 0 0 0 0 0 0 0 0 0 0 0 0 0 0 0 0 127 0"/>
<feOffset dy="1"/>
<feColorMatrix type="matrix" values="0 0 0 0 0.866667 0 0 0 0 0.776471 0 0 0 0 0.760784 0 0 0 1 0"/>
<feBlend mode="normal" in2="BackgroundImageFix" result="effect1_dropShadow"/>
<feBlend mode="normal" in="SourceGraphic" in2="effect1_dropShadow" result="shape"/>
</filter>
</defs>
</svg>
