<svg width="46" height="50" viewBox="0 0 46 50" fill="none" xmlns="http://www.w3.org/2000/svg">
<g filter="url(#filter0_d)">
<path d="M40.3501 0.274738L3.15363 16.3527L3.40292 35.465L45.1535 44.6736L40.3501 0.274738Z" fill="#F4EEED"/>
</g>
<path d="M23.06 21.202C24.4175 21.2009 25.7269 21.7049 26.7334 22.6158C27.74 23.5267 28.3717 24.7794 28.5057 26.1303C28.6397 27.4812 28.2664 28.8336 27.4584 29.9245C26.6504 31.0154 25.4656 31.7667 24.1343 32.0323C22.803 32.2979 21.4205 32.0588 20.2558 31.3615C19.091 30.6643 18.2273 29.5587 17.8326 28.2598C17.4379 26.9609 17.5405 25.5617 18.1204 24.3343C18.7003 23.1068 19.716 22.139 20.97 21.619C21.632 21.3425 22.3425 21.2008 23.06 21.202V21.202Z" stroke="#092343" stroke-width="2"/>
<path d="M33.599 13.03C34.1026 13.03 34.5907 13.2047 34.98 13.5242C35.3692 13.8438 35.6357 14.2884 35.7339 14.7824C35.8322 15.2763 35.7561 15.789 35.5187 16.2332C35.2813 16.6773 34.8973 17.0254 34.432 17.2182C33.9667 17.411 33.449 17.4364 32.967 17.2903C32.4851 17.1441 32.0687 16.8355 31.7888 16.4168C31.509 15.998 31.3829 15.4952 31.4322 14.994C31.4815 14.4928 31.703 14.0242 32.059 13.668C32.2584 13.4619 32.4979 13.299 32.7628 13.1892C33.0277 13.0795 33.3123 13.0253 33.599 13.03V13.03Z" stroke="#092343" stroke-width="1.5"/>
<path d="M9.948 24.2461L18.232 24.2651" stroke="#092343" stroke-width="2"/>
<path d="M27.948 24.2461H35.948" stroke="#092343" stroke-width="2"/>
<defs>
<filter id="filter0_d" x="0.558105" y="0.202652" width="44.5954" height="49.1244" filterUnits="userSpaceOnUse" color-interpolation-filters="sRGB">
<feFlood flood-opacity="0" result="BackgroundImageFix"/>
<feColorMatrix in="SourceAlpha" type="matrix" values="0 0 0 0 0 0 0 0 0 0 0 0 0 0 0 0 0 0 127 0"/>
<feOffset dy="1"/>
<feColorMatrix type="matrix" values="0 0 0 0 0.866667 0 0 0 0 0.776471 0 0 0 0 0.760784 0 0 0 1 0"/>
<feBlend mode="normal" in2="BackgroundImageFix" result="effect1_dropShadow"/>
<feBlend mode="normal" in="SourceGraphic" in2="effect1_dropShadow" result="shape"/>
</filter>
</defs>
</svg>
