<svg width="74" height="82" viewBox="0 0 74 82" fill="none" xmlns="http://www.w3.org/2000/svg">
<g filter="url(#filter0_d)">
<path d="M65.814 0.11925L4.29274 26.7113L4.7052 58.3225L73.7588 73.553L65.814 0.11925Z" fill="#E62E6C"/>
</g>
<path d="M39.0548 43.1829L39.4772 43.6386L48.2797 53.1347L48.8646 53.7657L48.0268 53.9615L47.2059 54.1534L46.9474 54.2139L46.7525 54.0335L37.7972 45.7455L37.4781 45.4501L37.7264 45.093L38.7 43.693L39.0548 43.1829Z" fill="#F4EEED"/>
<path d="M38.1368 45.3785L47.0921 53.6666L47.913 53.4746L39.1105 43.9785L38.1368 45.3785ZM36.8193 45.5216L37.3159 44.8075L38.2895 43.4075L38.9991 42.3873L39.8439 43.2987L48.6464 52.7948L49.8161 54.0567L48.1406 54.4484L47.3197 54.6403L46.8026 54.7612L46.4129 54.4005L37.4576 46.1124L36.8193 45.5216Z" fill="#F4EEED"/>
<path d="M38.9022 43.0067L39.3081 43.4494L40.6887 44.9553L41.0014 45.2963L40.6856 45.6345L33.3407 53.4988L33.1333 53.7209L32.8407 53.6391L31.9267 53.3837L31.2203 53.1863L31.6621 52.6009L38.5404 43.4861L38.9022 43.0067Z" fill="#F4EEED"/>
<path d="M40.3202 45.2932L38.9396 43.7873L32.0613 52.9021L32.9753 53.1575L40.3202 45.2932ZM41.6827 45.2995L41.0511 45.9758L33.7062 53.8401L33.2914 54.2842L32.7061 54.1207L31.7921 53.8653L30.3794 53.4705L31.263 52.2996L38.1413 43.1849L38.8649 42.226L39.6767 43.1115L41.0573 44.6173L41.6827 45.2995Z" fill="#F4EEED"/>
<defs>
<filter id="filter0_d" x="0" y="0" width="73.7588" height="81.5955" filterUnits="userSpaceOnUse" color-interpolation-filters="sRGB">
<feFlood flood-opacity="0" result="BackgroundImageFix"/>
<feColorMatrix in="SourceAlpha" type="matrix" values="0 0 0 0 0 0 0 0 0 0 0 0 0 0 0 0 0 0 127 0"/>
<feOffset dy="2"/>
<feColorMatrix type="matrix" values="0 0 0 0 0.737255 0 0 0 0 0.0941176 0 0 0 0 0.309804 0 0 0 1 0"/>
<feBlend mode="normal" in2="BackgroundImageFix" result="effect1_dropShadow"/>
<feBlend mode="normal" in="SourceGraphic" in2="effect1_dropShadow" result="shape"/>
</filter>
</defs>
</svg>
